<?xml version="1.0" encoding="UTF-8"?>
<svg version="1.1" xmlns="http://www.w3.org/2000/svg" width="500" height="500">
<path d="M0 0 C21.98170187 20.93040308 22.18322921 62.17905501 22.93688965 90.2199707 C23.11267753 97.98715663 23.23566185 105.7552798 23.359375 113.5234375 C23.59410962 154.41021564 23.59410962 154.41021564 34.859375 193.3359375 C35.189375 194.3259375 35.519375 195.3159375 35.859375 196.3359375 C36.519375 196.3359375 37.179375 196.3359375 37.859375 196.3359375 C40.859375 199.79747596 40.859375 199.79747596 40.859375 202.3359375 C41.849375 202.6659375 42.839375 202.9959375 43.859375 203.3359375 C43.859375 203.9959375 43.859375 204.6559375 43.859375 205.3359375 C44.7565625 205.7690625 44.7565625 205.7690625 45.671875 206.2109375 C47.859375 207.3359375 47.859375 207.3359375 50.859375 209.3359375 C50.859375 209.9959375 50.859375 210.6559375 50.859375 211.3359375 C51.43558594 211.45582031 52.01179687 211.57570313 52.60546875 211.69921875 C54.9765688 212.36904424 56.77536153 213.31967586 58.921875 214.5234375 C74.4075917 222.3568556 92.38146609 225.97777249 109.52487183 227.86003113 C110.33629072 227.94936511 111.14770962 228.03869909 111.98371696 228.13074017 C112.60268412 228.19845529 113.22165127 228.26617041 113.859375 228.3359375 C113.88277111 204.04830318 113.9003871 179.76067056 113.91118717 155.47302723 C113.91633588 144.19498632 113.92335137 132.91695242 113.93481445 121.63891602 C113.94480489 111.80503846 113.95123879 101.97116599 113.95346349 92.1372835 C113.95476321 86.93393651 113.95780208 81.73060405 113.96510506 76.52726173 C113.97193414 71.6214387 113.97397804 66.71563607 113.97248268 61.80980873 C113.97275593 60.01726673 113.97471993 58.22472399 113.97858047 56.43218613 C114.3351811 36.37555677 114.3351811 36.37555677 108.859375 17.3359375 C108.529375 16.3459375 108.199375 15.3559375 107.859375 14.3359375 C107.199375 14.3359375 106.539375 14.3359375 105.859375 14.3359375 C105.859375 13.6759375 105.859375 13.0159375 105.859375 12.3359375 C95.20663406 7.8872969 95.20663406 7.8872969 83.94921875 5.8359375 C82.79486328 5.7534375 81.64050781 5.6709375 80.45117188 5.5859375 C78.01108589 5.41900484 75.57098164 5.25233902 73.13085938 5.0859375 C71.97779297 5.0034375 70.82472656 4.9209375 69.63671875 4.8359375 C68.57702881 4.76375 67.51733887 4.6915625 66.42553711 4.6171875 C63.859375 4.3359375 63.859375 4.3359375 61.859375 3.3359375 C61.80552979 1.04452464 61.76665413 -1.24724438 61.734375 -3.5390625 C61.71117187 -4.81523438 61.68796875 -6.09140625 61.6640625 -7.40625 C61.859375 -10.6640625 61.859375 -10.6640625 63.859375 -12.6640625 C66.61707401 -12.91295147 66.61707401 -12.91295147 70.20533752 -12.91130066 C70.86379274 -12.91371507 71.52224795 -12.91612949 72.20065635 -12.91861707 C74.4171549 -12.92427352 76.63336771 -12.91557654 78.84985352 -12.90698242 C80.43471353 -12.90805481 82.01957315 -12.90999286 83.60443115 -12.91273499 C87.91626435 -12.91759294 92.22799446 -12.90991613 96.53981519 -12.89978194 C101.04370846 -12.89101824 105.54759835 -12.89275855 110.05149841 -12.8931427 C117.61499768 -12.89220538 125.17845689 -12.88351178 132.74194336 -12.86987305 C141.49883742 -12.85414114 150.25568759 -12.8488751 159.01259476 -12.8496086 C167.4220933 -12.85021798 175.83157747 -12.84512112 184.2410717 -12.83681679 C187.8267929 -12.83327725 191.41250902 -12.83145258 194.99823189 -12.83092308 C199.21624495 -12.82992187 203.43422086 -12.82384358 207.65222168 -12.81375694 C209.20469371 -12.81082495 210.75717001 -12.80960798 212.3096447 -12.81018448 C214.41993525 -12.81067176 216.53012021 -12.80505337 218.64039612 -12.79777527 C219.82414605 -12.79609942 221.00789598 -12.79442358 222.22751713 -12.79269695 C224.859375 -12.6640625 224.859375 -12.6640625 225.859375 -11.6640625 C225.93251067 -9.13356848 225.95185027 -6.63101413 225.921875 -4.1015625 C225.91736328 -3.39064453 225.91285156 -2.67972656 225.90820312 -1.94726562 C225.89638364 -0.18616237 225.87844763 1.57489786 225.859375 3.3359375 C224.71082031 3.45710938 223.56226563 3.57828125 222.37890625 3.703125 C201.4843116 5.51612551 201.4843116 5.51612551 181.859375 12.3359375 C181.859375 12.9959375 181.859375 13.6559375 181.859375 14.3359375 C181.199375 14.3359375 180.539375 14.3359375 179.859375 14.3359375 C179.18375752 15.9989959 178.52004219 17.66688355 177.859375 19.3359375 C177.34375 20.5115625 176.828125 21.6871875 176.296875 22.8984375 C172.32477475 33.70564599 173.7215461 46.67716464 173.74584961 58.04785156 C173.74613217 59.91166685 173.7459724 61.77548226 173.7454071 63.63929749 C173.74512183 68.66529599 173.75097478 73.69127031 173.75798106 78.71726322 C173.76425968 83.98230426 173.76482195 89.24734593 173.76600647 94.51239014 C173.76910654 104.46742422 173.77730199 114.42244723 173.78735596 124.37747645 C173.79855833 135.71731983 173.80403792 147.05716375 173.80905139 158.39701128 C173.81948578 181.70999281 173.83705945 205.02296453 173.859375 228.3359375 C177.00594788 227.88127814 180.15147255 227.41971285 183.296875 226.95703125 C184.17537109 226.83017944 185.05386719 226.70332764 185.95898438 226.57263184 C205.14228608 223.736724 224.88362545 219.39062774 240.046875 206.69140625 C241.859375 205.3359375 241.859375 205.3359375 243.859375 205.3359375 C244.189375 204.3459375 244.519375 203.3559375 244.859375 202.3359375 C245.519375 202.3359375 246.179375 202.3359375 246.859375 202.3359375 C247.16875 201.7171875 247.478125 201.0984375 247.796875 200.4609375 C248.484375 199.0859375 249.171875 197.7109375 249.859375 196.3359375 C250.519375 196.3359375 251.179375 196.3359375 251.859375 196.3359375 C252.13910156 195.6346875 252.41882813 194.9334375 252.70703125 194.2109375 C253.47671066 192.29065261 254.25540732 190.373958 255.04296875 188.4609375 C264.03312937 166.05555278 264.07721484 142.44379391 264.32269287 118.58587646 C265.3548694 23.62048313 265.3548694 23.62048313 287.15625 0.6640625 C295.92462519 -6.8878907 306.61865345 -9.98534064 317.859375 -11.6640625 C318.70113281 -11.79425781 319.54289062 -11.92445312 320.41015625 -12.05859375 C334.61926427 -13.75824782 349.65308467 -13.1651045 363.859375 -11.6640625 C363.88622912 -9.35162458 363.90570341 -7.0390998 363.921875 -4.7265625 C363.93347656 -3.43878906 363.94507813 -2.15101562 363.95703125 -0.82421875 C363.859375 2.3359375 363.859375 2.3359375 362.859375 3.3359375 C361.14961515 3.44511109 359.43578203 3.491777 357.72265625 3.51171875 C356.67013672 3.53556641 355.61761719 3.55941406 354.53320312 3.58398438 C352.31203745 3.626575 350.0906272 3.6580287 347.86914062 3.67773438 C341.51190432 3.84411366 337.78356294 4.24469678 332.859375 8.3359375 C332.199375 8.3359375 331.539375 8.3359375 330.859375 8.3359375 C330.16054116 10.32492612 329.50559986 12.32923925 328.859375 14.3359375 C328.61007233 15.01703079 328.36076965 15.69812408 328.10391235 16.39985657 C325.01209225 25.87461748 325.39935364 35.46482413 325.3828125 45.31640625 C325.36846768 47.25776734 325.35270456 49.1991184 325.33560181 51.14045715 C325.29394108 56.23216752 325.2688341 61.32381586 325.24810791 66.41564941 C325.21218738 74.54454557 325.15054955 82.67328704 325.08961868 90.80202675 C325.0708343 93.61331299 325.05888479 96.42455844 325.04818726 99.23588562 C324.90356249 127.78237698 324.90356249 127.78237698 321.671875 141.7109375 C321.45120361 142.68426025 321.23053223 143.65758301 321.00317383 144.66040039 C316.69921079 163.04814601 310.33888081 181.10405086 298.859375 196.3359375 C297.85970703 197.67398438 297.85970703 197.67398438 296.83984375 199.0390625 C271.08258191 232.05887978 221.15408654 238.12826283 182.47045898 243.93457031 C179.59565339 244.37647591 176.72799959 244.85569636 173.859375 245.3359375 C173.8126669 253.17791981 173.77731308 261.01986844 173.75575066 268.86195564 C173.74539248 272.5048635 173.73138248 276.14767495 173.70849609 279.79052734 C173.68647894 283.31781817 173.67474681 286.84501733 173.66962051 290.37237167 C173.66422374 292.34724709 173.64865935 294.32208655 173.63278198 296.29690552 C173.63097175 311.15901782 174.34488476 326.94523974 184.859375 338.3359375 C184.859375 338.9959375 184.859375 339.6559375 184.859375 340.3359375 C185.519375 340.3359375 186.179375 340.3359375 186.859375 340.3359375 C186.859375 340.9959375 186.859375 341.6559375 186.859375 342.3359375 C191.43195629 344.40007845 196.09354301 345.40595831 200.984375 346.3984375 C202.28616699 346.66285645 202.28616699 346.66285645 203.61425781 346.93261719 C212.66090351 348.65967441 221.66858253 349.12800102 230.859375 349.3359375 C230.88624779 351.14835802 230.90571215 352.96088983 230.921875 354.7734375 C230.93347656 355.78277344 230.94507813 356.79210937 230.95703125 357.83203125 C230.859375 360.3359375 230.859375 360.3359375 229.859375 361.3359375 C227.63179243 361.43296882 225.40106574 361.45780423 223.17137146 361.45619202 C222.46406248 361.45704644 221.75675349 361.45790087 221.0280109 361.45878118 C218.64031218 361.46043805 216.25268257 361.45491127 213.86499023 361.44946289 C212.16043093 361.44918104 210.45587149 361.44933872 208.75131226 361.4499054 C204.108947 361.45019344 199.46660735 361.44429556 194.82424808 361.43733144 C189.97821605 361.43109909 185.13218349 361.4304942 180.28614807 361.42930603 C171.10281536 361.42619236 161.9194945 361.4179785 152.73616701 361.40795654 C142.28410729 361.3967965 131.83204702 361.39128523 121.37998283 361.38626111 C99.87310693 361.37579591 78.36624171 361.35819579 56.859375 361.3359375 C56.859375 357.3759375 56.859375 353.4159375 56.859375 349.3359375 C57.99890625 349.31015625 59.1384375 349.284375 60.3125 349.2578125 C69.28065469 348.96793082 77.93150575 348.18646924 86.734375 346.3984375 C87.57129883 346.22860352 88.40822266 346.05876953 89.27050781 345.88378906 C93.30825623 345.01891027 97.07706448 344.04333678 100.859375 342.3359375 C100.859375 341.6759375 100.859375 341.0159375 100.859375 340.3359375 C101.519375 340.3359375 102.179375 340.3359375 102.859375 340.3359375 C103.13910156 339.76101563 103.41882813 339.18609375 103.70703125 338.59375 C104.82292891 336.40734713 106.04633252 334.32244536 107.296875 332.2109375 C117.06167808 314.40961507 113.98905974 291.4078605 113.921875 271.7734375 C113.9168482 269.20117275 113.91228738 266.62890704 113.90820312 264.05664062 C113.89729516 257.81638507 113.8806513 251.57616587 113.859375 245.3359375 C113.02615723 245.21589355 112.19293945 245.09584961 111.33447266 244.97216797 C18.3606168 231.42065161 18.3606168 231.42065161 -8.265625 200.5234375 C-8.75192383 199.95987549 -9.23822266 199.39631348 -9.73925781 198.81567383 C-13.140625 194.71319089 -13.140625 194.71319089 -13.140625 191.3359375 C-13.800625 191.3359375 -14.460625 191.3359375 -15.140625 191.3359375 C-24.25645935 175.14045172 -30.4800489 158.74004002 -34.453125 140.5859375 C-34.61240479 139.87953125 -34.77168457 139.173125 -34.93579102 138.4453125 C-37.63747463 125.29860743 -37.29034331 111.59223014 -37.33985519 98.23337555 C-37.35185218 95.28025631 -37.37134672 92.32727021 -37.39297485 89.37420654 C-37.45394567 80.98991349 -37.50867904 72.60564427 -37.54199219 64.22119141 C-37.56302437 59.06201429 -37.59837268 53.90309877 -37.64274979 48.74407196 C-37.65681555 46.79385209 -37.66561068 44.84358616 -37.66880417 42.89331818 C-37.68684464 32.94302546 -37.73468587 23.81740095 -41.140625 14.3359375 C-41.45 13.1603125 -41.759375 11.9846875 -42.078125 10.7734375 C-42.92196282 8.23747161 -42.92196282 8.23747161 -45.015625 7.0859375 C-45.716875 6.8384375 -46.418125 6.5909375 -47.140625 6.3359375 C-47.72360352 5.99900879 -48.30658203 5.66208008 -48.90722656 5.31494141 C-51.69881613 4.09125599 -53.95659412 4.01504049 -57 3.921875 C-58.67255859 3.86386719 -58.67255859 3.86386719 -60.37890625 3.8046875 C-61.53777344 3.77375 -62.69664063 3.7428125 -63.890625 3.7109375 C-65.06496094 3.67226562 -66.23929688 3.63359375 -67.44921875 3.59375 C-70.34609704 3.49954258 -73.24333941 3.41665367 -76.140625 3.3359375 C-76.140625 -1.6140625 -76.140625 -6.5640625 -76.140625 -11.6640625 C-20.36853998 -15.83393802 -20.36853998 -15.83393802 0 0 Z " fill="#060606" transform="translate(106.140625,75.6640625)"/>
</svg>
